<svg xmlns="http://www.w3.org/2000/svg" width="86.426" height="95" viewBox="0 0 86.426 95"><defs><style>.a{fill:#c5c8d0;}</style></defs><path class="a" d="M64.745,41.125V23.146a2.081,2.081,0,0,0-.574-1.366L44.015.614A2.009,2.009,0,0,0,42.57,0H10.612A10.647,10.647,0,0,0,0,10.712v60.43A10.58,10.58,0,0,0,10.612,81.774H35.838A27.229,27.229,0,1,0,64.745,41.125ZM44.55,6.95,58.073,21.186H49.3a4.782,4.782,0,0,1-4.752-4.771ZM10.612,77.814A6.633,6.633,0,0,1,3.96,71.141V10.712A6.688,6.688,0,0,1,10.612,3.96H40.59V16.414A8.729,8.729,0,0,0,49.3,25.146H60.785V40.609c-.594-.019-1.069-.079-1.584-.079a27.627,27.627,0,0,0-18.057,6.811H16a1.98,1.98,0,1,0,0,3.96H37.461a31.5,31.5,0,0,0-3.485,6.138H16a1.98,1.98,0,0,0,0,3.96H32.69a27.173,27.173,0,0,0,1.188,16.434H10.612ZM59.182,91.06A23.265,23.265,0,1,1,82.446,67.795,23.289,23.289,0,0,1,59.182,91.06Zm0,0"/><path class="a" d="M77.531,205.644H97.588a1.98,1.98,0,1,0,0-3.96H77.531a1.98,1.98,0,1,0,0,3.96Zm0,0" transform="translate(-61.533 -164.262)"/><path class="a" d="M282.692,319.626h-6.059v-6.158a1.98,1.98,0,1,0-3.96,0v6.158h-6.158a1.98,1.98,0,1,0,0,3.96h6.158v6.059a1.98,1.98,0,1,0,3.96,0v-6.059h6.059a1.98,1.98,0,1,0,0-3.96Zm0,0" transform="translate(-215.452 -253.692)"/></svg>