<svg xmlns="http://www.w3.org/2000/svg" width="69.365" height="71.113" viewBox="0 0 69.365 71.113"><defs><style>.a{fill:rgb(25, 151, 212);;opacity:0.29;}</style></defs><path class="a" d="M66.347,71.114H3.017A3.02,3.02,0,0,1,0,68.1V46.748a3.025,3.025,0,0,1,.967-2.211L13.05,32.076a2.987,2.987,0,0,1,2.12-.917h.038a3.016,3.016,0,0,1,2.165,5.117l-7.231,7.458H22.615a3.02,3.02,0,0,1,3.017,3.017v4.263H43.727V46.751a3.02,3.02,0,0,1,3.017-3.017H59.227L52,36.273a3.014,3.014,0,1,1,4.327-4.2L68.472,44.612l.036.036,0,0,0,0a.032.032,0,0,0,.006.009l.038.04.038.041c.012.012.023.025.034.039l.007.009a.8.8,0,0,1,.053.064.774.774,0,0,1,.049.061c.009.014.019.027.028.038l.023.03L68.8,45a.636.636,0,0,1,.039.056l.006.009.011.016.016.025c.017.025.033.05.048.075a.048.048,0,0,1,.014.019c.022.035.044.071.064.109l0,.006,0,.007c.056.1.093.182.122.253v.005a3.043,3.043,0,0,1,.237,1.245V68.1A3.02,3.02,0,0,1,66.347,71.114ZM6.033,49.764h0V65.083h57.3V49.766H49.759v1.246a6.038,6.038,0,0,1-6.031,6.031H25.634A6.038,6.038,0,0,1,19.6,51.012V49.766H6.033Zm28.657-11.3a3.02,3.02,0,0,1-3.017-3.017V8.942l-11.4,8.292a2.98,2.98,0,0,1-1.769.579,3.016,3.016,0,0,1-1.777-5.457L32.8.667A3.016,3.016,0,0,1,36.5.608L52.651,12.356A3.016,3.016,0,0,1,49.1,17.234l-11.4-8.292v26.5A3.02,3.02,0,0,1,34.69,38.461Z"/></svg>