<svg xmlns="http://www.w3.org/2000/svg" width="13.425" height="16.529" viewBox="0 0 13.425 16.529"><defs><style>.a{fill:#d84953;}</style></defs><g transform="translate(0)"><path class="a" d="M222.785,154.7a.387.387,0,0,0-.387.387v7.316a.387.387,0,1,0,.774,0V155.09A.387.387,0,0,0,222.785,154.7Zm0,0" transform="translate(-213.789 -148.714)"/><path class="a" d="M104.785,154.7a.387.387,0,0,0-.387.387v7.316a.387.387,0,1,0,.774,0V155.09A.387.387,0,0,0,104.785,154.7Zm0,0" transform="translate(-100.357 -148.714)"/><path class="a" d="M1.1,4.919v9.537a2.136,2.136,0,0,0,.568,1.473,1.906,1.906,0,0,0,1.383.6h7.324a1.906,1.906,0,0,0,1.383-.6,2.136,2.136,0,0,0,.568-1.473V4.919a1.479,1.479,0,0,0-.379-2.908H9.961V1.528A1.521,1.521,0,0,0,8.428,0H4.99A1.521,1.521,0,0,0,3.457,1.528v.484H1.476A1.479,1.479,0,0,0,1.1,4.919Zm9.275,10.834H3.047a1.226,1.226,0,0,1-1.177-1.3v-9.5h9.678v9.5a1.226,1.226,0,0,1-1.177,1.3ZM4.232,1.528A.746.746,0,0,1,4.99.773H8.428a.746.746,0,0,1,.759.755v.484H4.232ZM1.476,2.786H11.943a.7.7,0,0,1,0,1.394H1.476a.7.7,0,0,1,0-1.394Zm0,0" transform="translate(0.003 0.002)"/><path class="a" d="M163.785,154.7a.387.387,0,0,0-.387.387v7.316a.387.387,0,1,0,.774,0V155.09A.387.387,0,0,0,163.785,154.7Zm0,0" transform="translate(-157.073 -148.714)"/></g></svg>