<svg xmlns="http://www.w3.org/2000/svg" xmlns:xlink="http://www.w3.org/1999/xlink" width="90.013" height="108.016" viewBox="0 0 90.013 108.016"><defs><style>.a{fill:none;}.b{fill:#f6f6f6;}.c{fill:#e0e0e0;}.d{clip-path:url(#a);}.e{fill:#3098d8;}.f{fill:#2c8ac4;}.g{clip-path:url(#b);}.h{fill:#97cbec;}.i{fill:#fff;}.j{fill:#d8d8d8;}</style><clipPath id="a"><path class="a" d="M122.013,65.506H32V25h90.013V65.506" transform="translate(-32 -25)"/></clipPath><clipPath id="b"><path class="a" d="M122.013,121.764a11.252,11.252,0,0,1-11.252,11.252H43.252A11.252,11.252,0,0,1,32,121.764V36.252A11.252,11.252,0,0,1,43.252,25H97.259l24.754,24.754v72.01" transform="translate(-32 -25)"/></clipPath></defs><g transform="translate(0 -1)"><path class="b" d="M42.626,131.265A10.149,10.149,0,0,1,32.5,121.139V35.626A10.149,10.149,0,0,1,42.626,25.5H96.162l24.1,24.1v71.538a10.149,10.149,0,0,1-10.126,10.126H42.626" transform="translate(-31.375 -23.375)"/><path class="c" d="M96.337,27.25l23.426,23.426v71.088a9,9,0,0,1-9,9H43.252a9,9,0,0,1-9-9V36.252a9,9,0,0,1,9-9H96.337M97.259,25H43.252A11.252,11.252,0,0,0,32,36.252v85.512a11.252,11.252,0,0,0,11.252,11.252h67.51a11.252,11.252,0,0,0,11.252-11.252V49.754Z" transform="translate(-32 -24)"/><g class="d" transform="translate(0 1)"><path class="e" d="M42.626,131.265A10.149,10.149,0,0,1,32.5,121.139V35.626A10.149,10.149,0,0,1,42.626,25.5H96.162l24.1,24.1v71.538a10.149,10.149,0,0,1-10.126,10.126Z" transform="translate(-31.375 -24.375)"/><path class="f" d="M96.337,27.25l23.426,23.426v71.088a9,9,0,0,1-9,9H43.252a9,9,0,0,1-9-9V36.252a9,9,0,0,1,9-9H96.337M97.259,25H43.252A11.252,11.252,0,0,0,32,36.252v85.512a11.252,11.252,0,0,0,11.252,11.252h67.51a11.252,11.252,0,0,0,11.252-11.252V49.754Z" transform="translate(-32 -25)"/><g class="g"><path class="f" d="M30.43,10.5,52.213,32.283V10.5Z" transform="translate(38.047 10.878)"/></g><g class="g"><path class="h" d="M88,51H72.252A11.252,11.252,0,0,1,61,39.752V24H88Z" transform="translate(4.259 -26.25)"/></g></g><path class="i" d="M37.56,31.231h4.5a6.1,6.1,0,0,1,4.5,1.8,6.481,6.481,0,0,1,1.733,4.7,6.3,6.3,0,0,1-1.8,4.7,6.391,6.391,0,0,1-4.748,1.778H37.56Zm2.813,2.453V41.7h1.1a4.343,4.343,0,0,0,2.835-.923,3.938,3.938,0,0,0,1.1-3.15,4.613,4.613,0,0,0-.54-2.25,2.61,2.61,0,0,0-1.53-1.328,5.626,5.626,0,0,0-1.935-.36Z" transform="translate(-25.048 -16.212)"/><path class="i" d="M43.111,37.786a6.436,6.436,0,0,1,2-4.748,6.323,6.323,0,0,1,4.5-1.868,6.66,6.66,0,1,1-4.591,11.387A6.616,6.616,0,0,1,43.111,37.786Zm6.5-4.028a3.2,3.2,0,0,0-2.633,1.125,4.5,4.5,0,0,0-1.013,2.993A4.118,4.118,0,0,0,47,40.734a3.263,3.263,0,0,0,2.565,1.148A3.4,3.4,0,0,0,52.2,40.756a4.816,4.816,0,0,0,0-5.873,3.466,3.466,0,0,0-2.588-1.125Z" transform="translate(-18.109 -16.285)"/><path class="i" d="M56.218,31.15a9,9,0,0,1,3.691.878v3.15a7.494,7.494,0,0,0-3.691-1.26A3.173,3.173,0,0,0,53.7,35a4.5,4.5,0,0,0-.968,2.948,3.8,3.8,0,0,0,1.013,2.768A3.488,3.488,0,0,0,56.4,41.772a7.291,7.291,0,0,0,3.511-1.193v3.15a12.287,12.287,0,0,1-3.8.765,5.918,5.918,0,0,1-4.5-1.935,6.976,6.976,0,0,1,0-9.451,6.008,6.008,0,0,1,4.5-1.958Z" transform="translate(-9.794 -16.311)"/><path class="j" d="M97.008,49H41.875a3.375,3.375,0,0,0,0,6.751H97.008a3.375,3.375,0,1,0,0-6.751" transform="translate(-23.873 6.008)"/><path class="j" d="M97.008,55H41.875a3.375,3.375,0,0,0,0,6.751H97.008a3.375,3.375,0,1,0,0-6.751" transform="translate(-23.873 13.51)"/><path class="j" d="M73.38,61h-31.5a3.375,3.375,0,0,0,0,6.751h31.5a3.375,3.375,0,0,0,0-6.751" transform="translate(-23.873 21.012)"/></g></svg>