<svg xmlns="http://www.w3.org/2000/svg" width="25.093" height="19.096" viewBox="0 0 25.093 19.096"><defs><style>.a{fill:#8895a9;}</style></defs><g transform="translate(0 -57.75)"><g transform="translate(0 57.75)"><path class="a" d="M22.03,57.75H3.068A3.071,3.071,0,0,0,0,60.818V73.778a3.071,3.071,0,0,0,3.068,3.068H22.024a3.071,3.071,0,0,0,3.068-3.068V60.824A3.068,3.068,0,0,0,22.03,57.75ZM23.7,73.778a1.669,1.669,0,0,1-1.667,1.667H3.068A1.669,1.669,0,0,1,1.4,73.778V60.824a1.669,1.669,0,0,1,1.667-1.667H22.024a1.669,1.669,0,0,1,1.667,1.667V73.778Z" transform="translate(0 -57.75)"/><path class="a" d="M68.683,115.634l6.137-5.5a.7.7,0,0,0-.94-1.044l-8.463,7.6-1.651-1.475c-.005-.005-.01-.01-.01-.016a1.039,1.039,0,0,0-.114-.1l-6.718-6.012a.7.7,0,1,0-.935,1.049l6.21,5.55-6.184,5.789a.7.7,0,0,0-.031.992.717.717,0,0,0,.514.223.7.7,0,0,0,.478-.187l6.277-5.872,1.7,1.521a.7.7,0,0,0,.935-.005l1.75-1.568L73.88,122.5a.7.7,0,0,0,.992-.026.7.7,0,0,0-.026-.992Z" transform="translate(-52.858 -106.247)"/></g></g></svg>