<svg xmlns="http://www.w3.org/2000/svg" width="23.547" height="14.036" viewBox="0 0 23.547 14.036"><defs><style>.a{fill:#8492a6;}</style></defs><g transform="translate(0 -98.725)"><path class="a" d="M11.773,98.725c-4.5,0-8.579,2.461-11.589,6.459a.932.932,0,0,0,0,1.113c3.01,4,7.09,6.464,11.589,6.464s8.579-2.461,11.589-6.459a.932.932,0,0,0,0-1.113C20.352,101.186,16.272,98.725,11.773,98.725Zm.323,11.96a4.953,4.953,0,1,1,4.619-4.619A4.956,4.956,0,0,1,12.1,110.685Zm-.149-2.283a2.667,2.667,0,1,1,2.49-2.49A2.662,2.662,0,0,1,11.947,108.4Z" transform="translate(0 0)"/></g></svg>