<svg xmlns="http://www.w3.org/2000/svg" xmlns:xlink="http://www.w3.org/1999/xlink" width="90.013" height="108.016" viewBox="0 0 90.013 108.016"><defs><style>.a{fill:none;}.b{fill:#f6f6f6;}.c{fill:#e0e0e0;}.d{clip-path:url(#a);}.e{fill:#68ab46;}.f{fill:#5c973e;}.g{clip-path:url(#b);}.h{fill:#b3d5a3;}.i{fill:#fff;}</style><clipPath id="a"><path class="a" d="M190.013,65.506H100V25h90.013V65.506" transform="translate(-100 -25)"/></clipPath><clipPath id="b"><path class="a" d="M190.013,121.764a11.252,11.252,0,0,1-11.252,11.252h-67.51A11.252,11.252,0,0,1,100,121.764V36.252A11.252,11.252,0,0,1,111.252,25h54.008l24.754,24.754v72.01" transform="translate(-100 -25)"/></clipPath></defs><g transform="translate(0 -1)"><path class="b" d="M110.626,131.265A10.149,10.149,0,0,1,100.5,121.139V35.626A10.149,10.149,0,0,1,110.626,25.5h53.535l24.1,24.1v71.538a10.149,10.149,0,0,1-10.126,10.126Z" transform="translate(-99.375 -23.375)"/><path class="c" d="M164.337,27.25l23.426,23.426v71.088a9,9,0,0,1-9,9h-67.51a9,9,0,0,1-9-9V36.252a9,9,0,0,1,9-9h53.085m.923-2.25H111.252A11.252,11.252,0,0,0,100,36.252v85.512a11.252,11.252,0,0,0,11.252,11.252h67.51a11.252,11.252,0,0,0,11.252-11.252V49.754Z" transform="translate(-100 -24)"/><g class="d" transform="translate(0 1)"><path class="e" d="M110.626,131.265A10.149,10.149,0,0,1,100.5,121.139V35.626A10.149,10.149,0,0,1,110.626,25.5h53.535l24.1,24.1v71.538a10.149,10.149,0,0,1-10.126,10.126Z" transform="translate(-99.375 -24.375)"/><path class="f" d="M164.337,27.25l23.426,23.426v71.088a9,9,0,0,1-9,9h-67.51a9,9,0,0,1-9-9V36.252a9,9,0,0,1,9-9h53.085m.923-2.25H111.252A11.252,11.252,0,0,0,100,36.252v85.512a11.252,11.252,0,0,0,11.252,11.252h67.51a11.252,11.252,0,0,0,11.252-11.252V49.754Z" transform="translate(-100 -25)"/><g class="g"><path class="f" d="M30.43,10.5,52.213,32.283V10.5Z" transform="translate(38.047 10.878)"/></g><g class="g"><path class="h" d="M156,51H140.252A11.252,11.252,0,0,1,129,39.752V24h27Z" transform="translate(-63.741 -26.25)"/></g></g><path class="c" d="M106,49V82.755h63.009V49Zm56.258,6.751V62.5H133V55.751Zm-33.755,0V62.5H112.751V55.751Zm-15.752,13.5H128.5V76H112.751ZM133,76V69.253h29.254V76Z" transform="translate(-92.498 6.008)"/><path class="i" d="M105.6,31.23h2.97l2.61,3.983,2.7-3.961h2.9l-4.118,6.211,4.5,6.751h-2.9l-3.083-4.5-3.06,4.5h-2.97l4.5-6.751Z" transform="translate(-93.561 -16.21)"/><path class="i" d="M111.32,31.23h2.79V41.424h3.826v2.79H111.32Z" transform="translate(-85.846 -16.21)"/><path class="i" d="M119.308,31.2a5.176,5.176,0,0,1,3.623,1.35l-1.755,1.913a4.681,4.681,0,0,0-1.98-.81,1.035,1.035,0,0,0-.788.36,1.125,1.125,0,0,0-.338.833c0,.63.585,1.193,1.733,1.665a11.7,11.7,0,0,1,1.935.968,3.713,3.713,0,0,1,1.1,1.238,3.353,3.353,0,0,1,.428,1.688,3.848,3.848,0,0,1-1.35,2.9,4.5,4.5,0,0,1-3.2,1.238,5.851,5.851,0,0,1-3.983-1.89l1.845-2.25a3.443,3.443,0,0,0,2.25,1.283,1.418,1.418,0,0,0,.968-.45,1.283,1.283,0,0,0,.473-.945c0-.675-.72-1.283-2.25-1.8a6.526,6.526,0,0,1-1.733-.833,3.061,3.061,0,0,1-.878-1.125,3.691,3.691,0,0,1-.338-1.53,3.758,3.758,0,0,1,1.125-2.813,4.073,4.073,0,0,1,2.948-1.08Z" transform="translate(-81.57 -16.363)"/></g></svg>