<svg xmlns="http://www.w3.org/2000/svg" xmlns:xlink="http://www.w3.org/1999/xlink" width="23.063" height="27.675" viewBox="0 0 23.063 27.675"><defs><style>.a{fill:none;}.b{fill:#f6f6f6;}.c{fill:#e0e0e0;}.d{fill:#d8d8d8;}.e{clip-path:url(#a);}.f{fill:#d84953;}.g{fill:#c4434c;}.h{clip-path:url(#b);}.i{fill:#eca4a9;}.j{fill:#fff;}</style><clipPath id="a"><path class="a" d="M259.063,35.378H236V25h23.063V35.378" transform="translate(-236 -25)"/></clipPath><clipPath id="b"><path class="a" d="M259.063,49.792a2.883,2.883,0,0,1-2.883,2.883h-17.3A2.883,2.883,0,0,1,236,49.792V27.883A2.883,2.883,0,0,1,238.883,25H252.72l6.342,6.342v18.45" transform="translate(-236 -25)"/></clipPath></defs><g transform="translate(0 -1)"><path class="b" d="M239.094,52.6A2.6,2.6,0,0,1,236.5,50V28.095a2.6,2.6,0,0,1,2.595-2.595h13.716l6.175,6.175V50a2.6,2.6,0,0,1-2.595,2.595h-17.3" transform="translate(-236.212 -24.212)"/><path class="c" d="M252.484,25.577l6,6V49.792A2.306,2.306,0,0,1,256.18,52.1h-17.3a2.306,2.306,0,0,1-2.306-2.306V27.883a2.306,2.306,0,0,1,2.306-2.306h13.6M252.72,25H238.883A2.883,2.883,0,0,0,236,27.883V49.792a2.883,2.883,0,0,0,2.883,2.883h17.3a2.883,2.883,0,0,0,2.883-2.883V31.342Z" transform="translate(-236 -24)"/><path class="d" d="M261.4,55h-7.784a.865.865,0,1,0,0,1.73H261.4a.865.865,0,0,0,0-1.73" transform="translate(-243.093 -36.703)"/><path class="d" d="M261.4,61h-7.784a.865.865,0,1,0,0,1.73H261.4a.865.865,0,0,0,0-1.73" transform="translate(-243.093 -39.244)"/><path class="d" d="M257.241,49H243.115a.865.865,0,0,0,0,1.73h14.126a.865.865,0,1,0,0-1.73" transform="translate(-238.646 -34.162)"/><g class="e" transform="translate(0 1)"><path class="f" d="M239.094,52.6A2.6,2.6,0,0,1,236.5,50V28.095a2.6,2.6,0,0,1,2.595-2.595h13.716l6.175,6.175V50a2.6,2.6,0,0,1-2.595,2.595Z" transform="translate(-236.212 -25.212)"/><path class="g" d="M252.484,25.577l6,6V49.792A2.306,2.306,0,0,1,256.18,52.1h-17.3a2.306,2.306,0,0,1-2.306-2.306V27.883a2.306,2.306,0,0,1,2.306-2.306h13.6M252.72,25H238.883A2.883,2.883,0,0,0,236,27.883V49.792a2.883,2.883,0,0,0,2.883,2.883h17.3a2.883,2.883,0,0,0,2.883-2.883V31.342Z" transform="translate(-236 -25)"/><g class="h"><path class="g" d="M30.43,10.5l5.581,5.581V10.5Z" transform="translate(-12.885 -5.023)"/></g><g class="h"><path class="i" d="M271.919,30.919h-4.036A2.883,2.883,0,0,1,265,28.036V24h6.919Z" transform="translate(-248.28 -24.577)"/></g></g><path class="j" d="M241.61,31.229h1.153a1.038,1.038,0,0,1,.744.265.94.94,0,0,1,.283.7,1.153,1.153,0,0,1-.138.577.876.876,0,0,1-.421.381,1.286,1.286,0,0,1-.473.133h-.415v1.268h-.715Zm.7.577v.848h.277a.421.421,0,0,0,.311-.127.444.444,0,0,0,.127-.306.386.386,0,0,0-.144-.317.663.663,0,0,0-.409-.11Z" transform="translate(-238.376 -26.637)"/><path class="j" d="M246.33,31.229h1.153a1.557,1.557,0,0,1,1.153.461,1.637,1.637,0,0,1,.444,1.205,1.614,1.614,0,0,1-.455,1.205,1.637,1.637,0,0,1-1.217.455H246.33Zm.726.628v2.053h.283a1.113,1.113,0,0,0,.726-.236,1.026,1.026,0,0,0,.283-.807,1.182,1.182,0,0,0-.138-.577.7.7,0,0,0-.4-.34,1.418,1.418,0,0,0-.5-.092Z" transform="translate(-240.374 -26.637)"/><path class="j" d="M252.08,31.23h1.874v.646H252.8v.675h1.153V33.2H252.8v1.355h-.721Z" transform="translate(-242.809 -26.638)"/><rect class="c" width="4.613" height="5.189" rx="1.5" transform="translate(3.459 18.297)"/></g></svg>