<svg xmlns="http://www.w3.org/2000/svg" width="416.833" height="219.097" viewBox="0 0 416.833 219.097"><defs><style>.a{fill:rgb(27, 58, 107);}.b,.d{fill:#194253;}.c,.e{fill:#fff;}.c,.d{fill-rule:evenodd;}.f{fill:rgb(25, 151, 212);;}</style></defs><g transform="translate(0.01 -0.04)"><g transform="translate(-0.01 0.04)"><g transform="translate(29.483)"><path class="a" d="M545.418,374.5c7.366-9.564,11.579-22.184,10.248-34.506s-8.589-24.043-19.2-28.977c-11.15-5.151-24.078-2.521-35.5,1.886-16.138,6.225-31.255,12.37-48.194,15.688-13.483,2.623-23.454-.155-30.429-13.647-19.083-36.947,94.667-151.99-37.971-151.99-53.769,0-168.106,19.683-168.106,149,0,29.741,7.328,51.993,18.661,68.871H539.673A52.3,52.3,0,0,0,545.418,374.5Z" transform="translate(-216.27 -162.95)"/><ellipse class="a" cx="39.794" cy="42.651" rx="39.794" ry="42.651" transform="translate(260.224 1.643)"/></g><g transform="translate(0 216.975)"><path class="b" d="M585.363,486.072H170.51a1.064,1.064,0,0,1,0-2.122H585.363a1.064,1.064,0,0,1,0,2.122Z" transform="translate(-169.52 -483.95)"/></g></g><g transform="translate(94.171 44.334)"><path class="c" d="M455.39,469.216l1.362-1.737a21.16,21.16,0,0,0,4.37-11.275l1.791-20.994h41.219l1.791,20.994a21.162,21.162,0,0,0,4.37,11.308l1.362,1.737Z" transform="translate(-369.288 -295.474)"/><path class="b" d="M501.979,435.766l1.7,20.035a22.331,22.331,0,0,0,4.6,11.849H456.257a22.33,22.33,0,0,0,4.6-11.849l1.7-20.035h39.416m1.8-2.116H460.76l-.164,1.926L458.887,455.6a20.028,20.028,0,0,1-4.143,10.686L452,469.772h60.542l-2.724-3.481a20.028,20.028,0,0,1-4.143-10.687l-1.709-20.028-.164-1.926Z" transform="translate(-368.035 -294.969)"/><path class="d" d="M297.23,279.98v3.562l42.632,1.71V279.98Z" transform="translate(-203.957 -135.053)"/><path class="b" d="M506.37,475.626H473.046a1.07,1.07,0,0,1,0-2.116H506.37a1.07,1.07,0,0,1,0,2.116Z" transform="translate(-375.472 -307.886)"/><rect class="e" width="226.497" height="143.487" rx="8.43" transform="translate(0.99 1.061)"/><path class="b" d="M541.025,228.48H325.166a6.545,6.545,0,0,0-6.306,6.759V367.323a6.545,6.545,0,0,0,6.306,6.759H541.025a6.545,6.545,0,0,0,6.307-6.759V235.239a6.545,6.545,0,0,0-6.306-6.759ZM325.166,230.6H541.025a4.5,4.5,0,0,1,4.333,4.637v116.3H320.84v-116.3A4.5,4.5,0,0,1,325.166,230.6ZM541.025,371.967H325.166a4.5,4.5,0,0,1-4.333-4.644V353.656H545.351v13.667a4.5,4.5,0,0,1-4.326,4.644Z" transform="translate(-318.86 -228.48)"/><ellipse class="b" cx="3.153" cy="3.38" rx="3.153" ry="3.38" transform="translate(111.082 130.949)"/></g><g transform="translate(265.386 207.041)"><path class="e" d="M594.443,471.455h0c-1.425.182-2.523,1.953-2.523,4.056V479.3c0,.784.429,1.419.959,1.419h24.829c.53,0,.959-.635.959-1.419V475.51c0-2.116-1.1-3.887-2.523-4.056h0A84.5,84.5,0,0,0,594.443,471.455Z" transform="translate(-590.93 -469.701)"/><path class="b" d="M617.127,481.291H592.3a2.239,2.239,0,0,1-1.949-2.481v-3.792c0-2.67,1.463-4.873,3.4-5.124h0a86.263,86.263,0,0,1,21.928,0c1.936.25,3.4,2.454,3.4,5.124v3.792A2.239,2.239,0,0,1,617.127,481.291Zm-24.69-2.089Zm0-.041h24.6a.716.716,0,0,0,.076-.358v-3.792c0-1.548-.738-2.9-1.652-3.021a84.465,84.465,0,0,0-21.442,0h0c-.914.122-1.652,1.474-1.652,3.021V478.8a.72.72,0,0,0,.044.4Z" transform="translate(-590.35 -469.195)"/></g><g transform="translate(349.306 160.777)"><g transform="translate(5.107)"><path class="e" d="M739.331,410.217a.592.592,0,0,0-.484.026.662.662,0,0,0-.324.386,11.855,11.855,0,0,0-.523,3.481,11.212,11.212,0,0,0,7.852,10.93,12.025,12.025,0,0,0-.26-8.943,10.8,10.8,0,0,0-6.254-5.927Z" transform="translate(-733.912 -403.803)"/><path class="b" d="M745.861,425.816l-.851-.243A12.265,12.265,0,0,1,736.42,413.6a13.045,13.045,0,0,1,.58-3.839,1.635,1.635,0,0,1,.795-.987,1.552,1.552,0,0,1,1.261-.1h0a11.811,11.811,0,0,1,6.824,6.466,13.15,13.15,0,0,1,.3,9.757Zm-7.095-14.985a10.727,10.727,0,0,0-.366,2.792,10.264,10.264,0,0,0,6.237,9.6,10.673,10.673,0,0,0,.366-2.785,10.238,10.238,0,0,0-6.237-9.612ZM738.438,410.709Z" transform="translate(-733.328 -403.287)"/><path class="e" d="M733.844,420.58a.645.645,0,0,0-.631.568,11.88,11.88,0,0,0,2.462,8.914,10.284,10.284,0,0,0,7.861,3.928,11.951,11.951,0,0,0,.132-3.332A10.922,10.922,0,0,0,733.844,420.58Z" transform="translate(-732.108 -407.176)"/><path class="b" d="M743.748,434.548h-.826a11.235,11.235,0,0,1-8.608-4.293,12.98,12.98,0,0,1-2.687-9.76,1.641,1.641,0,0,1,1.7-1.487A11.359,11.359,0,0,1,741.7,423.8a13.072,13.072,0,0,1,2.208,9.894Zm-10.2-13.4a11.218,11.218,0,0,0,0,2.109,9.934,9.934,0,0,0,8.533,9.112,10.707,10.707,0,0,0,0-2.109,9.9,9.9,0,0,0-8.533-9.1Z" transform="translate(-731.518 -406.666)"/><path class="e" d="M764.117,410.221a.592.592,0,0,1,.484.026.662.662,0,0,1,.324.386,12.023,12.023,0,0,1-.767,8.922,10.687,10.687,0,0,1-6.587,5.516,12.04,12.04,0,0,1,.268-8.943,10.814,10.814,0,0,1,6.253-5.928Z" transform="translate(-740.87 -403.806)"/><path class="b" d="M756.44,425.837l-.322-.879a13.171,13.171,0,0,1,.31-9.753,11.832,11.832,0,0,1,6.816-6.47h0a1.6,1.6,0,0,1,2.056,1.088,13.146,13.146,0,0,1-.828,9.749,11.688,11.688,0,0,1-7.188,6.04Zm7.095-14.985a10.437,10.437,0,0,0-5.89,12.4,10.264,10.264,0,0,0,6.256-9.632,10.723,10.723,0,0,0-.366-2.765ZM763.869,410.73Z" transform="translate(-740.313 -403.308)"/><path class="e" d="M768.421,420.577a.645.645,0,0,1,.631.568,11.879,11.879,0,0,1-2.462,8.914,10.284,10.284,0,0,1-7.861,3.928,11.924,11.924,0,0,1,2.01-9.05,10.36,10.36,0,0,1,7.664-4.367Z" transform="translate(-741.498 -407.173)"/><path class="b" d="M757.366,434.545l-.158-.872a13.043,13.043,0,0,1,2.2-9.9A11.332,11.332,0,0,1,767.79,419h0a1.654,1.654,0,0,1,1.7,1.487,13.008,13.008,0,0,1-2.694,9.755,11.262,11.262,0,0,1-8.6,4.3Zm10.2-13.4a9.908,9.908,0,0,0-8.533,9.112,11.224,11.224,0,0,0,0,2.109,9.928,9.928,0,0,0,8.533-9.112,10.712,10.712,0,0,0,0-2.1Z" transform="translate(-740.93 -406.663)"/><path class="e" d="M752.1,402.59a.606.606,0,0,0-1.009,0,24.065,24.065,0,0,0,.5,27.152,24.035,24.035,0,0,0,.5-27.152Z" transform="translate(-737.288 -401.259)"/><path class="b" d="M751.052,430.964l-.782-1.075a25.2,25.2,0,0,1-.53-28.423,1.583,1.583,0,0,1,1.312-.717h0a1.589,1.589,0,0,1,1.312.717,25.188,25.188,0,0,1-.53,28.389Zm0-27.808a23.013,23.013,0,0,0,0,24.28A22.976,22.976,0,0,0,751.052,403.156Z" transform="translate(-736.723 -400.75)"/></g><g transform="translate(0 22.528)"><path class="e" d="M728.03,438.725a20.786,20.786,0,0,0,3.326,25.812,17.528,17.528,0,0,0,24.311-.139,20.8,20.8,0,0,0,3.069-25.848,6.1,6.1,0,0,0-5.159-2.859H733.3A6.208,6.208,0,0,0,728.03,438.725Z" transform="translate(-724 -434.601)"/><path class="b" d="M758.97,437.405A7.035,7.035,0,0,0,753,434.08H732.722a7.152,7.152,0,0,0-6.092,3.515,21.78,21.78,0,0,0-3.2,12.167c.388,10.691,8.229,19.351,18.188,20.089.423,0,.839.041,1.261.041a18.584,18.584,0,0,0,13.294-5.651,21.953,21.953,0,0,0,2.794-26.835Zm-30.694,1.352a5.228,5.228,0,0,1,4.415-2.555h20.275A5.1,5.1,0,0,1,757.3,438.6a19.289,19.289,0,0,1,2.775,7.6,5.591,5.591,0,0,0-2.642,2.177c-.795,1.014-1.261,1.6-2.314,1.6s-1.526-.581-2.321-1.6-1.829-2.359-3.834-2.359-3.014,1.3-3.834,2.359-1.261,1.6-2.308,1.6-1.526-.581-2.321-1.6-1.829-2.359-3.834-2.359-3.015,1.3-3.828,2.359-1.261,1.6-2.314,1.6-1.52-.581-2.314-1.6a5.547,5.547,0,0,0-2.63-2.17A19.405,19.405,0,0,1,728.276,438.757Zm26.538,23.928a16.618,16.618,0,0,1-13.067,5.042c-8.93-.67-15.964-8.427-16.334-18.014v-1.352a5.123,5.123,0,0,1,1.312,1.352c.814,1.055,1.835,2.359,3.834,2.359s3.015-1.3,3.834-2.359,1.261-1.6,2.308-1.6,1.526.581,2.321,1.6,1.829,2.359,3.834,2.359,3.014-1.3,3.828-2.359,1.293-1.6,2.314-1.6,1.526.581,2.321,1.6,1.829,2.359,3.834,2.359,3.014-1.3,3.834-2.359a5.174,5.174,0,0,1,1.305-1.352v.676a19.175,19.175,0,0,1-5.48,13.674Z" transform="translate(-723.42 -434.079)"/><ellipse class="b" cx="0.99" cy="1.061" rx="0.99" ry="1.061" transform="translate(30.75 11.958)"/><path class="b" d="M763.42,457.63a1.064,1.064,0,1,0,.99,1.061A1.028,1.028,0,0,0,763.42,457.63Z" transform="translate(-737.828 -441.711)"/><ellipse class="b" cx="0.99" cy="1.061" rx="0.99" ry="1.061" transform="translate(18.453 11.958)"/><path class="b" d="M743.91,457.63a1.064,1.064,0,1,0,.99,1.061A1.028,1.028,0,0,0,743.91,457.63Z" transform="translate(-730.622 -441.711)"/><ellipse class="b" cx="0.99" cy="1.061" rx="0.99" ry="1.061" transform="translate(6.155 11.958)"/></g></g><g transform="translate(80.972 30.187)"><path class="b" d="M328.28,216.432a1.028,1.028,0,0,1-.99-1.061v-6.759a.993.993,0,1,1,1.98,0v6.759a1.028,1.028,0,0,1-.99,1.061Z" transform="translate(-308.774 -207.55)"/><path class="b" d="M311.982,223.051a.976.976,0,0,1-.7-.311l-4.452-4.779a1.116,1.116,0,0,1,0-1.5.944.944,0,0,1,1.4,0l4.459,4.779a1.123,1.123,0,0,1,0,1.5A.976.976,0,0,1,311.982,223.051Z" transform="translate(-301.11 -210.337)"/><path class="b" d="M305.227,239.032H298.92a1.064,1.064,0,0,1,0-2.122h6.307a1.064,1.064,0,0,1,0,2.122Z" transform="translate(-297.93 -217.065)"/></g><g transform="translate(30.006 146.65)"><path class="e" d="M53.02,237.97l5.436,57.211H83.184L88.62,237.97Z" transform="translate(-49.593 -223.755)"/><path class="b" d="M252.975,458.643H226.488L220.85,399.31h37.788Zm-24.728-2.089h22.968l5.234-55.089H223.026Z" transform="translate(-218.495 -386.156)"/><path class="e" d="M257.763,390.237a1.278,1.278,0,0,0-1.217-.987h-35.26a1.278,1.278,0,0,0-1.211.987l-1.343,5.157a1.43,1.43,0,0,0,.208,1.18,1.235,1.235,0,0,0,1,.537H257.9a1.235,1.235,0,0,0,1-.537,1.43,1.43,0,0,0,.208-1.18Z" transform="translate(-217.695 -382.896)"/><path class="b" d="M257.316,397.664H219.363a2.2,2.2,0,0,1-1.793-.954,2.546,2.546,0,0,1-.37-2.108l1.343-5.157a2.294,2.294,0,0,1,2.163-1.764h35.266a2.294,2.294,0,0,1,2.163,1.764l1.343,5.157a2.546,2.546,0,0,1-.37,2.108,2.2,2.2,0,0,1-1.793.954ZM220.707,389.8a.275.275,0,0,0-.259.216l-1.343,5.151a.308.308,0,0,0,.043.255.266.266,0,0,0,.216.117h37.952a.272.272,0,0,0,.214-.115.3.3,0,0,0,.044-.257l-1.343-5.151a.275.275,0,0,0-.259-.216Z" transform="translate(-217.115 -382.387)"/><path class="e" d="M226.673,382.407l-1.123,4.306h31.816l-1.123-4.306a1.278,1.278,0,0,0-1.211-.987H227.915a1.276,1.276,0,0,0-1.242.987Z" transform="translate(-220.231 -380.359)"/><path class="b" d="M257.9,387.265H223.48l1.476-5.651a2.282,2.282,0,0,1,2.163-1.764h27.118a2.282,2.282,0,0,1,2.163,1.764Zm-31.816-2.122H255.3l-.776-2.961a.275.275,0,0,0-.259-.21H227.144a.275.275,0,0,0-.259.21Z" transform="translate(-219.466 -379.85)"/><path class="e" d="M222.776,425.067l2.327,24.442a1.3,1.3,0,0,0,1.261,1.217H254.5a1.3,1.3,0,0,0,1.261-1.217l2.321-24.442a1.415,1.415,0,0,0-.322-1.045,1.225,1.225,0,0,0-.94-.443H224.031a1.225,1.225,0,0,0-.935.445A1.415,1.415,0,0,0,222.776,425.067Z" transform="translate(-219.204 -394.021)"/><path class="b" d="M253.919,451.278h-28.14a2.3,2.3,0,0,1-2.239-2.17l-2.327-24.442a2.526,2.526,0,0,1,.569-1.861,2.187,2.187,0,0,1,1.67-.8h32.794a2.2,2.2,0,0,1,1.671.791,2.512,2.512,0,0,1,.568,1.866l-2.321,24.442A2.31,2.31,0,0,1,253.919,451.278Zm-30.467-27.152a.258.258,0,0,0-.2.1.326.326,0,0,0-.069.223l2.308,24.442a.279.279,0,0,0,.271.264H253.9a.279.279,0,0,0,.271-.264l2.321-24.442a.311.311,0,0,0-.07-.226.27.27,0,0,0-.2-.1Z" transform="translate(-218.625 -393.513)"/><g transform="translate(3.427 14.215)"><path class="b" d="M59.42,299.83H86.941l-.4,3.833L59.66,302.175Z" transform="translate(-55.384 -258.017)"/><path class="b" d="M53.02,237.97l.227,1.879,34.932,1.724.441-3.6Z" transform="translate(-53.02 -237.97)"/></g></g><path class="f" d="M444.024,348.667h25.087V319.4l-9.428,11.673a1.521,1.521,0,0,1-1.5.592,1.615,1.615,0,0,1-1.211-1.123,1.781,1.781,0,0,1,.33-1.679l12.2-15.1a1.54,1.54,0,0,1,1.192-.581,1.522,1.522,0,0,1,1.192.581l12.2,15.1a1.781,1.781,0,0,1,.33,1.679,1.615,1.615,0,0,1-1.211,1.123,1.521,1.521,0,0,1-1.5-.592l-9.46-11.673v29.268h30.649a17.728,17.728,0,0,0,16.155-10.892,20.169,20.169,0,0,0-2.351-20.3,17.1,17.1,0,0,0-18.149-6.329c0-.2,0-.4,0-.6,0-14.54-9.886-26.906-23.288-29.134s-26.315,6.345-30.424,20.2a19.841,19.841,0,0,0-16.853,5.016,23,23,0,0,0-7.332,17.02,25.949,25.949,0,0,0,6.848,17.712A22.565,22.565,0,0,0,444.024,348.667Z" transform="translate(-262.282 -201.185)"/></g></svg>