<svg xmlns="http://www.w3.org/2000/svg" xmlns:xlink="http://www.w3.org/1999/xlink" width="333" height="333" viewBox="0 0 333 333">
  <defs>
    <clipPath id="clip-path">
      <rect id="Rectangle_2166" data-name="Rectangle 2166" width="333" height="333" transform="translate(25 423)" fill="none"/>
    </clipPath>
  </defs>
  <g id="document" transform="translate(-25 -423)" clip-path="url(#clip-path)">
    <path id="Icon_metro-files-empty" data-name="Icon metro-files-empty" d="M278.434,116.492A290.866,290.866,0,0,0,250.463,84.5a290.989,290.989,0,0,0-31.989-27.97C201.927,44.4,193.9,43,189.3,43H71.233A25.7,25.7,0,0,0,45.566,68.663V304.8a25.7,25.7,0,0,0,25.667,25.667H266.3A25.7,25.7,0,0,0,291.971,304.8V145.664c0-4.6-1.4-12.625-13.538-29.172Zm-42.49-17.47a280.048,280.048,0,0,1,23.287,26.108H209.836V75.738a279.836,279.836,0,0,1,26.108,23.284ZM271.437,304.8a5.2,5.2,0,0,1-5.133,5.133H71.233A5.2,5.2,0,0,1,66.1,304.8V68.663a5.2,5.2,0,0,1,5.133-5.133H189.3V135.4a10.267,10.267,0,0,0,10.267,10.267h71.868ZM177.407,15.466C160.86,3.331,152.833,1.928,148.235,1.928H30.166A25.7,25.7,0,0,0,4.5,27.6V263.733a25.711,25.711,0,0,0,20.534,25.151V27.6a5.2,5.2,0,0,1,5.133-5.133H186.375c-3.095-2.541-6.1-4.9-8.968-7Z" transform="translate(43.501 423.072)" fill="#9e9e9e"/>
  </g>
</svg>
